<?xml version="1.0" encoding="utf-8"?>
<svg xmlns="http://www.w3.org/2000/svg" viewBox="0 0 500 500">
  <path style="stroke: rgb(0, 0, 0); fill: rgb(218, 99, 85);" d="M 215.928 24.631 C 209.146 24.631 203.079 34.243 199.097 38.588 C 181.363 57.933 167.206 79.08 155.993 102.627 C 150.24 114.709 143.228 125.981 137.931 138.342 C 133.693 148.231 132.242 159.138 128.079 169.13 C 120.771 186.668 111.523 203.438 105.911 221.675 C 97.436 249.221 95.036 278.822 89.901 307.061 C 86.271 327.027 78.636 346.284 73.071 365.764 C 69.61 377.876 63.075 388.771 59.113 400.657 C 54.42 414.738 50.238 428.926 45.567 442.939 C 42.907 450.917 37.037 465.688 45.567 472.085 C 52.589 477.352 64.013 477.084 72.25 477.832 C 93.712 479.784 115.205 476.19 136.7 476.19 C 157.432 476.19 178.386 475.29 199.097 476.19 C 233.623 477.692 268.043 481.033 302.545 482.759 C 313.24 483.293 323.549 481.369 334.154 480.706 C 343.364 480.13 352.899 481.725 362.069 480.706 C 365.25 480.353 368.261 478.903 371.511 478.654 C 387.194 477.447 402.976 479.064 418.719 479.064 C 424.554 479.064 434.134 480.418 439.245 477.011 C 441.423 475.559 441.101 472.188 441.297 470.033 C 441.715 465.436 443.597 461.074 444.171 456.486 C 445.634 444.781 431.206 434.575 425.287 425.698 C 421.499 420.016 419.357 413.487 415.846 407.635 C 411.239 399.957 404.66 393.794 399.836 386.289 C 394.295 377.67 391.664 367.287 387.521 357.964 C 377.59 335.619 365.343 314.423 356.732 291.461 C 354.238 284.81 354.044 277.376 352.217 270.525 C 346.223 248.048 340.464 223.458 329.639 202.791 C 320.787 185.893 310.84 168.939 298.44 154.351 C 283.959 137.315 267.332 121.525 255.747 102.217 C 253.35 98.222 250.435 94.056 248.358 89.901 C 247.257 87.699 247.653 84.473 247.126 82.102 C 246.119 77.567 243.573 72.835 241.79 68.555 C 237.539 58.352 228.496 50.872 222.496 41.872 C 218.571 35.985 215.435 27.832 212.644 25.041"/>
</svg>